HIERARCHY
ROOT Hips
{
	OFFSET 0.000000 0.000000 0.000000
	CHANNELS 6 Xposition Yposition Zposition Xrotation Yrotation Zrotation
	JOINT LeftUpLeg_virtual
	{
		OFFSET 0.000000 0.000000 0.000000
		CHANNELS 3 Xrotation Yrotation Zrotation
		JOINT LeftUpLeg
		{
			OFFSET 15.427100 -6.655098 0.678600
			CHANNELS 3 Xrotation Yrotation Zrotation
			JOINT LeftLeg
			{
				OFFSET 4.081073 -39.591068 13.024000
				CHANNELS 3 Xrotation Yrotation Zrotation
				JOINT LeftFoot
				{
					OFFSET -4.081074 -37.707932 -15.979700
					CHANNELS 3 Xrotation Yrotation Zrotation
					JOINT LeftToeBase
					{
						OFFSET 5.346399 -15.068900 20.645000
						CHANNELS 3 Xrotation Yrotation Zrotation
						JOINT LeftToe_End
						{
							OFFSET 2.754700 0.931300 11.300900
							CHANNELS 3 Xrotation Yrotation Zrotation
							End Site
							{
								OFFSET 0 0 0
							}
						}
					}
				}
			}
		}
	}
	JOINT RightUpLeg_virtual
	{
		OFFSET 0.000000 0.000000 0.000000
		CHANNELS 3 Xrotation Yrotation Zrotation
		JOINT RightUpLeg
		{
			OFFSET -15.569500 -6.655098 0.678600
			CHANNELS 3 Xrotation Yrotation Zrotation
			JOINT RightLeg
			{
				OFFSET -4.081825 -39.591045 13.023800
				CHANNELS 3 Xrotation Yrotation Zrotation
				JOINT RightFoot
				{
					OFFSET 4.081824 -37.707954 -15.979600
					CHANNELS 3 Xrotation Yrotation Zrotation
					JOINT RightToeBase
					{
						OFFSET -5.346400 -15.068900 20.645000
						CHANNELS 3 Xrotation Yrotation Zrotation
						JOINT RightToe_End
						{
							OFFSET -2.754700 0.931300 11.300900
							CHANNELS 3 Xrotation Yrotation Zrotation
							End Site
							{
								OFFSET 0 0 0
							}
						}
					}
				}
			}
		}
	}
	JOINT Spine_virtual
	{
		OFFSET 0.000000 0.000000 0.000000
		CHANNELS 3 Xrotation Yrotation Zrotation
		JOINT Spine
		{
			OFFSET -0.279200 12.230698 -2.892100
			CHANNELS 3 Xrotation Yrotation Zrotation
			JOINT Spine1
			{
				OFFSET -0.232667 10.192268 -1.242267
				CHANNELS 3 Xrotation Yrotation Zrotation
				JOINT Spine1_split
				{
					OFFSET -0.232667 10.192268 -1.242267
					CHANNELS 3 Xrotation Yrotation Zrotation
					JOINT Spine2
					{
						OFFSET -0.232667 10.192268 -1.242267
						CHANNELS 3 Xrotation Yrotation Zrotation
						JOINT Neck_virtual
						{
							OFFSET 0.000000 0.000000 0.000000
							CHANNELS 3 Xrotation Yrotation Zrotation
							JOINT Neck
							{
								OFFSET -0.418800 17.814194 8.416900
								CHANNELS 3 Xrotation Yrotation Zrotation
								JOINT Head
								{
									OFFSET 0.000000 7.031097 3.806800
									CHANNELS 3 Xrotation Yrotation Zrotation
									JOINT HeadTop_End
									{
										OFFSET 0.000000 24.646606 12.978600
										CHANNELS 3 Xrotation Yrotation Zrotation
										End Site
										{
											OFFSET 0 0 0
										}
									}
								}
							}
						}
						JOINT LeftShoulder_virtual
						{
							OFFSET 0.000000 0.000000 0.000000
							CHANNELS 3 Xrotation Yrotation Zrotation
							JOINT LeftShoulder
							{
								OFFSET 8.476499 7.247704 -3.868750
								CHANNELS 3 Xrotation Yrotation Zrotation
								JOINT LeftShoulder_split
								{
									OFFSET 8.476499 7.247704 -3.868750
									CHANNELS 3 Xrotation Yrotation Zrotation
									JOINT LeftArm
									{
										OFFSET 9.308998 -2.777710 0.208600
										CHANNELS 3 Xrotation Yrotation Zrotation
										JOINT LeftForeArm
										{
											OFFSET 29.972298 0.000000 0.000000
											CHANNELS 3 Xrotation Yrotation Zrotation
											JOINT LeftHand
											{
												OFFSET 26.026505 0.000000 0.000000
												CHANNELS 3 Xrotation Yrotation Zrotation
												End Site
												{
													OFFSET 0 0 0
												}
											}
										}
									}
								}
							}
						}
						JOINT RightShoulder_virtual
						{
							OFFSET 0.000000 0.000000 0.000000
							CHANNELS 3 Xrotation Yrotation Zrotation
							JOINT RightShoulder
							{
								OFFSET -7.570500 7.247704 -3.868750
								CHANNELS 3 Xrotation Yrotation Zrotation
								JOINT RightShoulder_split
								{
									OFFSET -7.570500 7.247704 -3.868750
									CHANNELS 3 Xrotation Yrotation Zrotation
									JOINT RightArm
									{
										OFFSET -9.308998 -2.777710 0.208500
										CHANNELS 3 Xrotation Yrotation Zrotation
										JOINT RightForeArm
										{
											OFFSET -29.972300 0.000000 0.000000
											CHANNELS 3 Xrotation Yrotation Zrotation
											JOINT RightHand
											{
												OFFSET -26.026505 0.000000 0.000000
												CHANNELS 3 Xrotation Yrotation Zrotation
												End Site
												{
													OFFSET 0 0 0
												}
											}
										}
									}
								}
							}
						}
					}
				}
			}
		}
	}
}
MOTION
Frames: 7
Frame Time: 0.03333333
9.279325 90.128563 14.215694 0.000000 0.000000 0.000000 -0.868174 8.621674 -4.297998 4.850457 12.010410 10.814222 16.439886 -5.753742 -2.240746 -24.348383 2.362939 0.959439 -0.672833 -0.707160 -1.616915 0.000000 0.000000 0.000000 -0.446407 7.124610 -4.543919 -26.523860 -7.629677 -2.746471 29.620970 0.518552 3.053493 -4.209723 2.296503 5.541736 5.341781 1.482367 1.790576 0.000000 0.000000 0.000000 0.008631 7.816855 -4.181040 11.624700 -1.798090 2.562303 0.702812 -1.729049 0.822805 0.807025 -1.097552 0.431876 0.000000 0.000000 0.000000 -3.043446 -1.400046 1.016215 -1.004591 -0.252024 5.182074 -3.970156 0.138398 -4.522976 0.000000 0.000000 0.000000 -3.169195 -1.593856 1.000909 0.821480 -1.044133 -3.068139 -1.257647 -0.591776 -0.117797 -0.938566 -10.213651 -74.654453 10.455084 -13.025412 -3.257972 0.000000 0.000000 0.000000 -3.293434 -1.893631 0.986509 2.399578 -0.115243 7.988384 -2.366452 1.050716 -1.601556 1.938282 10.637250 71.479405 11.130843 19.046973 3.162478 0.000000 0.000000 0.000000 
9.468135 90.661728 16.007702 0.000000 0.000000 0.000000 -0.474923 9.472402 -5.174410 6.400506 11.494968 11.263837 15.057772 -6.487721 -1.862420 -24.236312 2.596221 0.307415 -1.913902 -0.999114 -1.652241 0.000000 0.000000 0.000000 -0.101532 7.356329 -5.387447 -27.158555 -7.304745 -1.034180 24.452697 1.927088 2.954527 -4.330337 2.587397 6.407349 7.074553 -0.086151 0.848407 0.000000 0.000000 0.000000 0.542326 7.866549 -4.899840 11.519172 -1.891661 3.294913 0.438984 -1.909006 0.910475 0.761570 -1.050283 0.430540 0.000000 0.000000 0.000000 -3.180485 -1.552700 1.115861 -1.237883 -0.380184 5.028407 -4.289715 0.059568 -5.251172 0.000000 0.000000 0.000000 -3.326122 -1.719568 0.980466 0.848795 -1.113585 -2.963054 -1.213800 -0.277979 0.010719 -1.270972 -10.844174 -74.501497 10.656650 -13.516973 -3.646638 0.000000 0.000000 0.000000 -3.307007 -1.974524 1.066101 2.514809 -0.798327 7.955552 -2.435892 0.810716 -1.852362 2.050769 11.040092 71.387197 10.838309 18.674813 4.020201 0.000000 0.000000 0.000000 
9.549350 91.108978 17.909801 0.000000 0.000000 0.000000 -0.136896 10.305736 -5.872250 7.858198 10.514182 11.807580 14.036721 -7.143779 -1.428829 -23.686616 3.372481 -0.940221 -3.165852 -1.294051 -1.576444 0.000000 0.000000 0.000000 0.180973 7.984254 -6.072943 -27.730524 -6.493759 0.008539 20.057491 3.461387 2.888906 -3.552231 3.026240 6.909074 7.335529 -1.643723 0.048477 0.000000 0.000000 0.000000 0.859312 8.011027 -5.518465 11.713208 -2.137638 3.785420 0.165972 -2.176131 1.144558 0.588333 -0.810417 0.457167 0.000000 0.000000 0.000000 -3.340033 -1.815434 1.362894 -1.646239 -0.473940 4.717036 -4.704051 -0.129024 -5.886682 0.000000 0.000000 0.000000 -3.543365 -1.936662 1.111629 0.864097 -1.246762 -3.144512 -1.278646 0.166652 -0.023315 -1.304533 -11.586455 -74.162768 10.753341 -13.853821 -4.088270 0.000000 0.000000 0.000000 -3.413100 -2.166866 1.266481 2.609011 -1.398399 7.749706 -2.459746 0.744794 -2.046584 2.323604 11.609642 71.592021 10.459274 18.695686 4.618873 0.000000 0.000000 0.000000 
9.529831 91.296158 19.997452 0.000000 0.000000 0.000000 0.079088 10.871550 -6.377525 9.626148 9.651529 12.241224 13.167163 -7.094056 -0.950839 -23.872290 4.711166 -1.636328 -3.821810 -1.620732 -1.389572 0.000000 0.000000 0.000000 0.371540 8.814514 -6.557016 -28.475933 -5.526407 0.333221 16.752622 4.710607 2.907799 -2.370070 3.351815 6.507091 7.396889 -2.966443 -0.465672 0.000000 0.000000 0.000000 0.935350 8.215910 -5.990959 12.150842 -2.449556 4.007026 -0.104985 -2.488224 1.454325 0.461982 -0.420704 0.412191 0.000000 0.000000 0.000000 -3.482194 -2.138357 1.677429 -2.233541 -0.578965 4.372372 -5.213576 -0.427462 -6.376116 0.000000 0.000000 0.000000 -3.789428 -2.207041 1.342698 0.865006 -1.405920 -3.530520 -1.408427 0.536989 -0.059386 -1.139091 -12.408171 -73.703649 10.750537 -14.253649 -4.523190 0.000000 0.000000 0.000000 -3.574567 -2.433567 1.521785 2.662645 -1.910433 7.439901 -2.435599 0.817730 -2.103441 2.680265 12.256780 72.034877 9.996631 18.993470 5.011855 0.000000 0.000000 0.000000 
9.392301 91.095406 22.438797 0.000000 0.000000 0.000000 0.156899 11.285572 -6.650108 11.652784 9.285747 12.638285 12.359101 -6.729501 -0.571372 -24.920000 6.355064 -2.485818 -4.474409 -1.954478 -0.734517 0.000000 0.000000 0.000000 0.479303 9.733016 -6.834435 -29.296847 -4.781862 0.107427 15.057133 5.467925 3.038970 -0.875571 3.402613 5.200608 7.727015 -3.856429 -0.680679 0.000000 0.000000 0.000000 0.682722 8.541263 -6.219406 12.769514 -2.735683 4.005976 -0.367490 -2.780306 1.753153 0.382634 0.147895 0.285939 0.000000 0.000000 0.000000 -3.596049 -2.450045 1.959193 -2.943960 -0.709790 4.107685 -5.754634 -0.799708 -6.700022 0.000000 0.000000 0.000000 -4.028644 -2.460099 1.580872 0.858889 -1.524712 -4.016923 -1.542089 0.550308 -0.069899 -0.918495 -13.202653 -73.226328 10.686049 -14.892775 -4.895421 0.000000 0.000000 0.000000 -3.735118 -2.694690 1.743100 2.691221 -2.354630 7.128817 -2.355469 0.995007 -1.994301 2.974663 12.821249 72.578751 9.476929 19.385870 5.276901 0.000000 0.000000 0.000000 
9.083614 90.489273 25.146975 0.000000 0.000000 0.000000 0.108824 11.628162 -6.673406 13.532632 9.590602 12.933580 11.917941 -6.255939 -0.330932 -26.117378 7.784229 -3.728772 -5.977072 -2.382207 0.420656 0.000000 0.000000 0.000000 0.495398 10.853052 -6.917085 -30.089312 -4.541581 -0.482372 15.097993 5.712082 3.313168 1.193185 3.191834 3.455465 7.771492 -4.224671 -0.736078 0.000000 0.000000 0.000000 0.256645 9.043154 -6.208017 13.440632 -2.909841 3.868109 -0.624109 -3.000809 1.958357 0.471353 0.635906 0.174359 0.000000 0.000000 0.000000 -3.689650 -2.677969 2.124226 -3.673343 -0.882924 3.978674 -6.281985 -1.205805 -6.833275 0.000000 0.000000 0.000000 -4.261075 -2.628056 1.753911 0.850738 -1.512599 -4.481181 -1.663268 0.170601 0.014263 -0.792526 -13.806206 -72.828101 10.614577 -15.822055 -5.159795 0.000000 0.000000 0.000000 -3.867358 -2.887421 1.849450 2.704469 -2.717775 6.884939 -2.266971 1.114719 -1.716422 3.054993 13.253754 73.114511 8.927701 19.702519 5.468958 0.000000 0.000000 0.000000 
8.665742 89.669495 28.106428 0.000000 0.000000 0.000000 -0.145297 12.173600 -6.454541 14.693212 10.245790 13.312987 12.483969 -6.053237 -0.284353 -25.683625 8.665060 -5.664368 -8.358412 -2.985512 1.770516 0.000000 0.000000 0.000000 0.539186 11.991856 -6.828322 -30.826952 -4.846552 -1.182377 16.382764 5.662696 3.749529 3.758642 2.799490 1.937175 7.286435 -4.111562 -0.713416 0.000000 0.000000 0.000000 -0.185471 9.787866 -5.980745 14.029671 -2.936909 3.702479 -0.895609 -3.114255 2.025369 0.733542 0.980873 0.122932 0.000000 0.000000 0.000000 -3.793028 -2.788519 2.139112 -4.348448 -1.092742 3.991689 -6.723811 -1.581790 -6.828015 0.000000 0.000000 0.000000 -4.487136 -2.681014 1.807288 0.858179 -1.332877 -4.842696 -1.675078 -0.479159 0.349312 -0.858159 -14.020433 -72.608886 10.543455 -16.884337 -5.320399 0.000000 0.000000 0.000000 -3.935820 -2.973027 1.811235 2.738500 -3.007886 6.756963 -2.202243 1.092213 -1.308020 2.821450 13.500134 73.530511 8.386155 19.969238 5.615672 0.000000 0.000000 0.000000 
